<?xml version="1.0" encoding="utf-8"?>
<!-- Generator: Adobe Illustrator 19.1.0, SVG Export Plug-In . SVG Version: 6.00 Build 0)  -->
<svg version="1.1" id="dsgn" xmlns="http://www.w3.org/2000/svg" xmlns:xlink="http://www.w3.org/1999/xlink" x="0px" y="0px"
	 viewBox="0 0 159 211" style="enable-background:new 0 0 159 211;" xml:space="preserve">
<g id="case">
	<g>
		<g id="border">
			<polygon class="st0" points="13,13 147,13 147,15.8 159.2,0 0,0 0,205.8 13,189 			"/>
			<polygon class="st0" points="146,19.8 146,198 12,198 12,193 -1,209.8 -1,211 159,211 159,4 158.2,4 			"/>
		</g>
		<path d="M58.4,36.6H41.9v62.2H58c7.6,0,13.6-2.3,17.9-7c4.3-4.7,6.5-11.1,6.5-19.2V62.5c-0.1-8-2.3-14.3-6.6-19
			S65.6,36.6,58.4,36.6z M69.8,73.6c-0.1,5.4-1,9.2-2.7,11.4c-1.7,2.2-4.7,3.3-8.9,3.3h-3.8V47.1H59c3.9,0.1,6.7,1.3,8.3,3.6
			C69,53,69.8,57,69.8,62.8V73.6z"/>
		<path d="M104.7,56.9c-0.8-1.7-0.8-3.7,0.1-6c1.7-4.2,4.7-5.4,9-3.7c2.8,1.1,4.6,2.5,5.6,4.2l6.5-8.4c-2.4-2.1-5.2-3.8-8.4-5
			c-5.9-2.3-11.1-2.8-15.6-1.4c-4.5,1.4-7.7,4.6-9.7,9.5c-1.8,4.5-1.9,8.7-0.3,12.6c1.6,4,5,8.1,10.2,12.5c0.4,0.4,0.7,0.7,1.1,1
			l6.9-8.9C107.4,60.7,105.5,58.6,104.7,56.9z"/>
		<path d="M109.6,101.2c4.8-1.4,8.2-4.5,10-9.2c1.5-3.9,1.5-7.8,0-11.8c-1.6-3.9-5-8.2-10.4-12.8c0,0,0,0,0,0l-6.9,8.9
			c2.3,2.2,3.8,4.1,4.6,5.7c0.9,1.8,1,3.5,0.4,5c-0.8,2-2,3.3-3.7,4c-1.7,0.7-3.6,0.6-5.8-0.2c-1.9-0.8-3.3-1.9-4.1-3.3L87,96
			c2,1.6,4.2,2.9,6.9,3.9C99.6,102.2,104.8,102.6,109.6,101.2z"/>
		<path d="M46.3,142.7v-11.9c0.1-5.7,0.9-9.8,2.4-12.5c1.6-2.6,4.1-3.9,7.6-3.9c2.9,0,5,0.8,6.3,2.3c1,1.1,1.7,2.9,2.1,5.3l8.6-11.1
			c-0.6-0.8-1.1-1.5-1.8-2.2c-3.5-3.5-8.7-5.3-15.6-5.3c-7.3,0-12.9,2.4-16.8,7.3c-3.8,4.9-5.7,11.8-5.7,20.8v11.8
			c0.1,6.1,1.1,11.1,3,15.2l10-12.9C46.4,144.8,46.3,143.8,46.3,142.7z"/>
		<path d="M55.7,174.8c4.3,0,8.2-0.7,11.8-2.1c3.6-1.4,6.6-3.5,9.1-6.2v-27H54.8v10h9v12l-1.1,0.8c-1.6,1-3.6,1.6-6.2,1.6
			c-4,0-6.8-1.4-8.5-4.1c-1.4-2.2-2.2-5.6-2.5-10l-10,12.9c0.9,1.9,2,3.6,3.2,5.1C42.7,172.4,48.4,174.8,55.7,174.8z"/>
		<polygon points="114.8,148.8 96.1,104.5 83.4,104.5 83.4,171.9 96.1,171.9 96.1,127.7 114.8,171.9 127.5,171.9 127.5,104.5
			114.8,104.5 		"/>
	</g>
</g>
</svg>
