<svg xmlns="http://www.w3.org/2000/svg" width="96.828" height="96.827" viewBox="0 0 96.828 96.827"><path d="M62.617 0H39.525C29.235 0 22.112 2.256 15.7 7.552c-5.04 4.35-8.05 10.672-8.05 16.912 0 9.614 7.33 19.83 20.913 19.83 1.306 0 2.752-.133 4.028-.252l-.18.457c-.547 1.3-1.064 2.54-1.064 4.46 0 3.75 1.81 6.064 3.56 8.3l.22.283-.39.027c-5.61.386-16.05 1.1-23.677 5.79-9.01 5.353-9.71 13.143-9.71 15.402 0 8.988 8.375 18.06 27.09 18.06 21.76 0 33.145-12.005 33.145-23.863.003-8.77-5.14-13.1-10.6-17.698L46.38 51.68c-1.422-1.18-3.194-2.645-3.194-5.363 0-2.673 1.773-4.437 3.337-5.993l.163-.165c4.973-3.92 10.61-8.36 10.61-17.968 0-9.658-6.036-14.65-8.938-17.048h7.663a.49.49 0 0 0 .27-.077l6.6-4.15a.5.5 0 0 0-.266-.92zM34.614 91.535c-13.264 0-22.176-6.195-22.176-15.416 0-6.028 3.645-10.4 10.824-13 5.75-1.94 13.17-2.03 13.244-2.03 1.257 0 1.89 0 2.893.12 9.28 6.607 13.74 10.075 13.74 16.68 0 8.414-7.1 13.64-18.53 13.64zm-.125-50.78c-11.14 0-15.76-14.632-15.76-22.467 0-3.984.907-7.042 2.77-9.35 2.027-2.532 5.49-4.168 8.827-4.168 10.22 0 15.873 13.74 15.873 23.235 0 1.498 0 6.055-3.147 9.22-2.117 2.113-5.56 3.532-8.568 3.532zm60.49 4.468H82.81V33.098a.5.5 0 0 0-.5-.5H77.08a.5.5 0 0 0-.5.5v12.125H64.473a.5.5 0 0 0-.5.5v5.304a.5.5 0 0 0 .5.5H76.58V63.73a.5.5 0 0 0 .5.5h5.234a.5.5 0 0 0 .5-.5V51.525h12.168a.5.5 0 0 0 .5-.5v-5.302a.5.5 0 0 0-.5-.5z"/></svg>