<svg xmlns="http://www.w3.org/2000/svg" width="378.94" height="378.94" viewBox="0 0 378.94 378.94"><path d="M348.15 54.514c-19.882-19.884-46.314-30.826-74.434-30.826-28.124 0-54.56 10.942-74.45 30.826l-9.797 9.8-9.8-9.8c-19.886-19.884-46.327-30.826-74.445-30.826-28.117 0-54.56 10.942-74.442 30.826-41.05 41.053-41.05 107.848 0 148.885l147.09 147.09c2.405 2.41 5.4 3.89 8.527 4.46 1.05.205 2.105.3 3.16.3 4.163 0 8.33-1.586 11.5-4.763l147.09-147.09c41.05-41.04 41.05-107.834 0-148.887zm-22.995 125.89L189.47 316.09 53.782 180.405c-28.368-28.364-28.368-74.514 0-102.893 13.74-13.738 32.017-21.295 51.446-21.295 19.43 0 37.702 7.557 51.438 21.296l21.305 21.313c6.11 6.098 16.9 6.098 23.007 0L222.27 77.51c13.738-13.738 32.01-21.295 51.447-21.295 19.43 0 37.7 7.557 51.438 21.296 28.37 28.38 28.37 74.53 0 102.897z"/></svg>