<svg xmlns="http://www.w3.org/2000/svg" xmlns:xlink="http://www.w3.org/1999/xlink" width="32" height="662" viewBox="0 0 32 662"><svg width="32" height="32" viewBox="0 0 32 32"><path fill="#333" d="M32 1.883L30.145.033 16 14.15 1.855.032 0 1.882l14.145 14.12L0 30.117l1.855 1.85L16 17.853 30.145 31.97 32 30.117 17.854 16z"/></svg><svg width="32" height="32" viewBox="0 0 32 32" y="42"><path fill="#333" d="M24 .007L19.85 0c-4.663 0-7.676 3.09-7.676 7.875v3.63H8.002a.653.653 0 0 0-.652.653v5.26c0 .362.292.653.652.653h4.172v13.28c0 .36.292.655.652.655h5.444c.36 0 .652-.292.652-.652v-13.28H23.8a.65.65 0 0 0 .652-.65l.002-5.26a.65.65 0 0 0-.653-.652h-4.874V8.43c0-1.48.353-2.23 2.28-2.23H24a.65.65 0 0 0 .65-.653V.66A.65.65 0 0 0 24 .01z"/></svg><svg width="32" height="32" viewBox="0 0 32 32" y="84"><path fill="#333" d="M20.694 0h-7.632c-3.4 0-5.755.746-7.874 2.496-1.666 1.438-2.66 3.527-2.66 5.59 0 3.176 2.422 6.553 6.91 6.553.433 0 .91-.05 1.332-.09l-.06.15c-.18.434-.352.84-.352 1.478 0 1.24.598 2.004 1.177 2.742l.073.094-.13.008c-1.853.127-5.303.364-7.824 1.913C.677 22.71.446 25.287.446 26.032c0 2.97 2.768 5.97 8.953 5.97 7.19 0 10.95-3.97 10.95-7.887 0-2.898-1.7-4.33-3.505-5.85l-1.523-1.183c-.47-.39-1.056-.874-1.056-1.773 0-.888.586-1.47 1.103-1.986l.054-.055c1.643-1.294 3.505-2.76 3.505-5.937 0-3.192-1.996-4.842-2.955-5.634h2.533a.21.21 0 0 0 .09-.025l2.18-1.37c.062-.04.09-.116.07-.186S20.77 0 20.693 0zM11.44 30.25c-4.385 0-7.33-2.046-7.33-5.094 0-1.99 1.205-3.436 3.577-4.296 1.9-.64 4.353-.67 4.377-.67.415 0 .625 0 .956.04 3.067 2.184 4.54 3.33 4.54 5.513 0 2.78-2.345 4.508-6.122 4.508zm-.042-16.78c-3.68 0-5.206-4.837-5.206-7.426 0-1.317.3-2.327.915-3.09.67-.837 1.814-1.377 2.917-1.377 3.378 0 5.246 4.54 5.246 7.68 0 .494 0 2-1.04 3.046-.7.698-1.838 1.167-2.832 1.167zm19.992 1.476h-4.02V10.94a.166.166 0 0 0-.166-.166h-1.73a.166.166 0 0 0-.165.165v4h-4.007a.166.166 0 0 0-.165.166v1.753c0 .09.074.165.165.165h4v4.03c0 .09.075.166.166.166h1.73c.09 0 .165-.073.165-.164v-4.034h4.02c.09 0 .165-.074.165-.165v-1.75a.165.165 0 0 0-.164-.164z"/></svg><svg width="32" height="32" viewBox="0 0 32 32" y="126"><path fill="#333" d="M29.4 4.604C27.72 2.924 25.49 2 23.114 2s-4.607.925-6.287 2.604L16 5.432l-.828-.828C13.492 2.924 11.26 2 8.886 2S4.28 2.926 2.6 4.605C-.866 8.07-.866 13.71 2.6 17.177l12.42 12.42c.204.205.457.33.72.378a1.357 1.357 0 0 0 1.238-.374L29.4 17.18c3.467-3.466 3.467-9.106 0-12.573zm-1.942 10.63L16 26.692 4.542 15.234a6.15 6.15 0 0 1 0-8.69c1.16-1.16 2.704-1.797 4.344-1.797s3.184.638 4.344 1.798l1.8 1.8c.515.515 1.426.515 1.942 0l1.798-1.8c1.16-1.16 2.703-1.798 4.345-1.798s3.184.638 4.344 1.798a6.16 6.16 0 0 1 0 8.69z"/></svg><svg width="32" height="32" viewBox="0 0 32 32" y="168"><path fill="#333" d="M32 19.458v11.83h-6.86V20.252c0-2.772-.99-4.664-3.474-4.664-1.895 0-3.023 1.275-3.52 2.51-.18.44-.227 1.054-.227 1.67V31.29h-6.867s.092-18.696 0-20.633h6.86v2.925c-.014.022-.032.045-.045.067h.045v-.07c.91-1.407 2.54-3.41 6.183-3.41 4.513 0 7.9 2.95 7.9 9.284zM3.882.71C1.535.71 0 2.25 0 4.276c0 1.98 1.49 3.567 3.79 3.567h.047c2.393 0 3.88-1.586 3.88-3.567C7.674 2.25 6.23.71 3.884.71zM.407 31.29h6.858V10.656H.407V31.29z"/></svg><svg width="32" height="32" viewBox="0 0 32 32" y="210"><path fill="#333" d="M16 0C9.798 0 4.77 5.028 4.77 11.23c0 .475.038.937.096 1.396.96 8.772 10.404 18.882 10.404 18.882.168.188.33.304.487.39l.008.003.314.1.31-.1h.01a1.78 1.78 0 0 0 .485-.39s9.308-10.125 10.245-18.9a11 11 0 0 0 .095-1.38C27.225 5.03 22.2 0 16 0zm0 18.453c-3.982 0-7.223-3.24-7.223-7.223S12.017 4.007 16 4.007s7.22 3.24 7.22 7.223-3.238 7.223-7.22 7.223z"/></svg><svg width="32" height="32" viewBox="0 0 32 32" y="252"><path fill="#333" d="M8.81 1.227h14.38v.35L24.22 0H7.78v25.205l1.03-1.578z"/><path fill="#333" d="M12.712 4.186a6.06 6.06 0 0 0-1.512.175v8.16c.285.065.69.12 1.27.12.976 0 1.765-.34 2.29-1.074.483-.678.823-1.774.823-3.363 0-1.47-.33-2.49-.844-3.123-.477-.604-1.09-.89-2.03-.89zm0 6.992c-.142 0-.296 0-.395-.033V5.71c.1-.034.252-.078.504-.078.97 0 1.57.91 1.56 2.64.01 1.974-.645 2.916-1.664 2.905zm5.337-4.723c0-.427.37-.8 1.14-.8.49 0 .882.1 1.2.208l.82-1.25.023-.076c-.47-.22-1.118-.416-2.005-.416-1.85 0-2.97 1.09-2.97 2.5 0 1.19.81 1.94 2.07 2.427l.976-1.49c-.878-.362-1.26-.603-1.26-1.096zm-6.13 10.97c0-1.797.864-2.685 2.025-2.685.24 0 .45.022.624.055l.866-1.326c-.34-.16-.843-.29-1.468-.29-2.007 0-3.487 1.58-3.498 4.34-.01 1.02.208 1.94.603 2.63l1.006-1.535a3.93 3.93 0 0 1-.164-1.196zM23.19 1.907v22.4H8.81v-.35l-1.03 1.577h16.44V.33z"/><path fill="#333" d="M21.545 10.433c0-1.173-.647-1.93-2.038-2.477-.077-.033-.142-.055-.208-.088l-.98 1.49c.032.01.054.022.09.033.94.368 1.313.66 1.313 1.18 0 .536-.427.9-1.25.9-.48 0-.963-.11-1.37-.254l-.876 1.338c.46.24 1.293.46 2.137.46 2.17 0 3.178-1.183 3.178-2.574zM13.82 21.995c.81 0 1.61-.274 2.037-.47V17.15h-2.28v1.47h.943v1.73c-.11.078-.362.122-.68.122-.832 0-1.478-.548-1.763-1.523l-1.007 1.54c.074.14.16.26.25.382.57.734 1.38 1.118 2.5 1.118zm4.832-3.288l1.13 3.2h1.26V13.6h-1.097v2.422c0 1.25.022 2.367.1 3.463h-.023c-.24-.93-.548-1.973-.866-2.85L18.06 13.59h-1.414v8.306h1.096v-2.5c0-1.358-.01-2.52-.044-3.615l.022-.01c.263.98.614 2.05.93 2.94z"/></svg><svg width="32" height="32" viewBox="0 0 32 32" y="294"><path fill="#333" d="M0 4.28h32v2.743H0zm0 10.264h32v2.743H0zm0 10.43h32v2.745H0z"/></svg><svg width="32" height="32" viewBox="0 0 32 32" y="336"><path fill="#333" d="M24 .007L19.85 0c-4.663 0-7.676 3.09-7.676 7.875v3.63H8.002a.653.653 0 0 0-.652.653v5.26c0 .362.292.653.652.653h4.172v13.28c0 .36.292.655.652.655h5.444c.36 0 .652-.292.652-.652v-13.28H23.8a.65.65 0 0 0 .652-.65l.002-5.26a.65.65 0 0 0-.653-.652h-4.874V8.43c0-1.48.353-2.23 2.28-2.23H24a.65.65 0 0 0 .65-.653V.66A.65.65 0 0 0 24 .01z"/></svg><svg width="32" height="32" viewBox="0 0 32 32" y="378"><path fill="#333" d="M20.694 0h-7.632c-3.4 0-5.755.746-7.874 2.496-1.666 1.438-2.66 3.527-2.66 5.59 0 3.176 2.422 6.553 6.91 6.553.433 0 .91-.05 1.332-.09l-.06.15c-.18.434-.352.84-.352 1.478 0 1.24.598 2.004 1.177 2.742l.073.094-.13.008c-1.853.127-5.303.364-7.824 1.913C.677 22.71.446 25.287.446 26.032c0 2.97 2.768 5.97 8.953 5.97 7.19 0 10.95-3.97 10.95-7.887 0-2.898-1.7-4.33-3.505-5.85l-1.523-1.183c-.47-.39-1.056-.874-1.056-1.773 0-.888.586-1.47 1.103-1.986l.054-.055c1.643-1.294 3.505-2.76 3.505-5.937 0-3.192-1.996-4.842-2.955-5.634h2.533a.21.21 0 0 0 .09-.025l2.18-1.37c.062-.04.09-.116.07-.186S20.77 0 20.693 0zM11.44 30.25c-4.385 0-7.33-2.046-7.33-5.094 0-1.99 1.205-3.436 3.577-4.296 1.9-.64 4.353-.67 4.377-.67.415 0 .625 0 .956.04 3.067 2.184 4.54 3.33 4.54 5.513 0 2.78-2.345 4.508-6.122 4.508zm-.042-16.78c-3.68 0-5.206-4.837-5.206-7.426 0-1.317.3-2.327.915-3.09.67-.837 1.814-1.377 2.917-1.377 3.378 0 5.246 4.54 5.246 7.68 0 .494 0 2-1.04 3.046-.7.698-1.838 1.167-2.832 1.167zm19.992 1.476h-4.02V10.94a.166.166 0 0 0-.166-.166h-1.73a.166.166 0 0 0-.165.165v4h-4.007a.166.166 0 0 0-.165.166v1.753c0 .09.074.165.165.165h4v4.03c0 .09.075.166.166.166h1.73c.09 0 .165-.073.165-.164v-4.034h4.02c.09 0 .165-.074.165-.165v-1.75a.165.165 0 0 0-.164-.164z"/></svg><svg width="32" height="32" viewBox="0 0 32 32" y="420"><path fill="#333" d="M32 19.458v11.83h-6.86V20.252c0-2.772-.99-4.664-3.474-4.664-1.895 0-3.023 1.275-3.52 2.51-.18.44-.227 1.054-.227 1.67V31.29h-6.867s.092-18.696 0-20.633h6.86v2.925c-.014.022-.032.045-.045.067h.045v-.07c.91-1.407 2.54-3.41 6.183-3.41 4.513 0 7.9 2.95 7.9 9.284zM3.882.71C1.535.71 0 2.25 0 4.276c0 1.98 1.49 3.567 3.79 3.567h.047c2.393 0 3.88-1.586 3.88-3.567C7.674 2.25 6.23.71 3.884.71zM.407 31.29h6.858V10.656H.407V31.29z"/></svg><svg width="32" height="32" viewBox="0 0 32 32" y="462"><path fill="#333" d="M32 6.08c-1.178.52-2.442.875-3.77 1.033a6.585 6.585 0 0 0 2.886-3.63 13.197 13.197 0 0 1-4.17 1.595 6.566 6.566 0 0 0-11.357 4.49c0 .513.053 1.015.17 1.495a18.615 18.615 0 0 1-13.53-6.86 6.506 6.506 0 0 0-.89 3.3 6.56 6.56 0 0 0 2.92 5.463 6.56 6.56 0 0 1-2.975-.824v.082A6.57 6.57 0 0 0 6.55 18.66a6.566 6.566 0 0 1-2.964.11 6.566 6.566 0 0 0 6.13 4.56 13.162 13.162 0 0 1-8.15 2.808c-.53 0-1.053-.032-1.567-.09A18.56 18.56 0 0 0 10.06 29c12.076 0 18.676-10.003 18.676-18.677l-.023-.85a13.113 13.113 0 0 0 3.283-3.39z"/></svg><svg width="32" height="32" viewBox="0 0 32 32" y="504"><path fill="#333" d="M30.615 14.615H4.73l6.176-6.177a1.386 1.386 0 0 0-1.96-1.96L.406 15.02c-.54.54-.54 1.418 0 1.96l8.54 8.54a1.384 1.384 0 0 0 1.96-1.954l-6.176-6.18h25.885a1.383 1.383 0 0 0 0-2.766z"/></svg><svg width="32" height="32" viewBox="0 0 32 32" y="546"><path fill="#333" d="M21.536 5.536l-.832.83 9.044 9.046H0v1.177h29.75l-9.046 9.04.83.83L32 16z"/></svg><svg width="32" height="32" viewBox="0 0 32 32" y="588"><path fill="#333" d="M21.536 5.536l-.832.83 9.044 9.046H0v1.177h29.75l-9.046 9.04.83.83L32 16z"/></svg><svg width="32" height="32" viewBox="0 0 32 32" y="630"><path fill="#333" d="M32 6.08c-1.178.52-2.442.875-3.77 1.033a6.585 6.585 0 0 0 2.886-3.63 13.197 13.197 0 0 1-4.17 1.595 6.566 6.566 0 0 0-11.357 4.49c0 .513.053 1.015.17 1.495a18.615 18.615 0 0 1-13.53-6.86 6.506 6.506 0 0 0-.89 3.3 6.56 6.56 0 0 0 2.92 5.463 6.56 6.56 0 0 1-2.975-.824v.082A6.57 6.57 0 0 0 6.55 18.66a6.566 6.566 0 0 1-2.964.11 6.566 6.566 0 0 0 6.13 4.56 13.162 13.162 0 0 1-8.15 2.808c-.53 0-1.053-.032-1.567-.09A18.56 18.56 0 0 0 10.06 29c12.076 0 18.676-10.003 18.676-18.677l-.023-.85a13.113 13.113 0 0 0 3.283-3.39z"/></svg></svg>